<?xml version="1.0" standalone="no"?>
<!DOCTYPE svg PUBLIC "-//W3C//DTD SVG 20010904//EN"
 "http://www.w3.org/TR/2001/REC-SVG-20010904/DTD/svg10.dtd">
<svg version="1.0" xmlns="http://www.w3.org/2000/svg"
 width="200.000000pt" height="200.000000pt" viewBox="0 0 200.000000 200.000000"
 preserveAspectRatio="xMidYMid meet">
<metadata>
Created by potrace 1.11, written by Peter Selinger 2001-2013
</metadata>
<g transform="translate(0.000000,200.000000) scale(0.100000,-0.100000)"
fill="#000000" stroke="none">
<path d="M1007 1886 c-3 -8 -20 -22 -36 -31 -28 -14 -33 -14 -69 5 -64 33 -88
11 -56 -52 46 -89 49 -159 11 -228 -14 -25 -28 -63 -32 -85 -12 -68 -41 -109
-169 -239 -68 -69 -126 -126 -128 -126 -7 0 -37 65 -46 100 -5 19 -10 60 -11
90 -4 87 -42 144 -130 199 -30 18 -64 44 -74 58 -13 17 -23 21 -30 14 -15 -15
16 -56 66 -88 100 -64 127 -108 127 -207 1 -84 13 -128 53 -194 19 -32 38 -71
42 -89 4 -22 18 -39 42 -54 28 -18 33 -25 27 -43 -4 -11 -7 -54 -6 -93 2 -46
-2 -83 -11 -100 -18 -35 -12 -53 18 -53 15 0 25 -7 28 -21 4 -16 12 -20 34
-17 24 3 28 8 31 38 1 19 -6 59 -17 89 -10 30 -17 60 -14 67 2 7 31 13 70 16
78 5 96 23 112 111 9 53 17 66 102 162 51 58 99 107 108 109 94 25 127 27 163
9 26 -12 51 -10 75 9 34 27 -41 71 -119 71 -51 -1 -59 8 -11 12 16 1 33 3 40
3 6 1 40 37 74 80 86 106 101 121 117 114 22 -8 44 26 31 49 -22 42 -67 21
-171 -80 l-58 -55 -22 21 c-13 11 -33 26 -45 32 -57 29 -83 156 -46 221 49 85
52 93 43 110 -5 10 -21 21 -36 24 -14 4 -36 18 -49 32 -18 19 -24 21 -28 10z"/>
<path d="M1355 1162 c-6 -4 -10 -31 -10 -60 1 -48 -8 -73 -21 -59 -3 3 -6 27
-6 54 l0 48 -24 -28 c-17 -20 -24 -40 -24 -70 l0 -43 83 2 c52 1 93 8 112 18
39 20 68 20 108 -1 22 -12 58 -17 115 -18 l82 0 0 35 c0 19 -9 50 -20 68 -31
51 -70 62 -220 62 l-130 0 0 -66 c0 -87 -23 -84 -30 4 -3 40 -9 59 -15 54z
m343 -90 c2 -23 -1 -32 -12 -33 -9 -1 -24 -2 -33 -3 -22 -1 -31 53 -11 65 27
17 53 3 56 -29z"/>
<path d="M1507 992 c-62 -8 -74 -98 -17 -127 36 -19 75 -6 92 30 23 51 -18
105 -75 97z"/>
<path d="M1270 862 c0 -177 19 -194 229 -197 173 -2 216 7 248 54 20 30 23 46
23 140 l0 107 -71 0 c-70 0 -71 0 -66 -25 7 -38 -21 -100 -54 -116 -85 -44
-182 17 -174 109 l4 32 -70 0 -69 -1 0 -103z"/>
<path d="M1312 444 c-1 -22 -9 -56 -18 -74 -25 -50 -30 -115 -10 -145 32 -48
105 -65 152 -36 17 11 16 11 -6 5 -41 -12 -94 -4 -115 17 -22 22 -25 84 -6
132 10 27 12 27 28 11 15 -15 73 -44 88 -44 3 0 5 5 5 10 0 6 -3 9 -7 9 -24
-4 -45 4 -69 25 -27 22 -27 25 -12 47 15 23 58 50 102 64 10 3 16 8 13 11 -10
10 -65 -7 -101 -31 l-35 -24 -4 32 c-3 28 -4 27 -5 -9z"/>
<path d="M1470 470 c0 -5 9 -12 20 -15 60 -19 38 -123 -28 -128 -11 0 -19 -4
-16 -8 8 -14 63 12 80 38 21 33 21 69 0 92 -19 21 -56 34 -56 21z"/>
<path d="M428 453 c-42 -27 -62 -85 -36 -111 7 -7 11 -33 9 -61 -2 -39 2 -54
18 -70 25 -25 70 -27 112 -6 32 17 89 89 89 114 0 8 15 31 33 50 24 27 25 30
5 12 l-28 -24 -6 32 c-4 17 -20 43 -36 56 -40 34 -55 32 -19 -2 16 -16 32 -43
35 -61 5 -30 3 -34 -29 -47 -53 -23 -135 -24 -135 -2 0 19 59 87 76 87 8 0 14
5 14 10 0 26 -60 -12 -95 -60 -21 -28 -25 -30 -31 -16 -12 32 9 78 46 97 19
11 28 19 20 19 -8 0 -27 -8 -42 -17z m172 -133 c0 -19 -50 -89 -74 -105 -14
-9 -39 -15 -58 -13 -38 4 -57 32 -50 78 4 30 6 31 49 26 25 -2 61 2 82 9 45
17 51 17 51 5z"/>
<path d="M1676 375 c-11 -19 -23 -35 -28 -35 -5 0 -6 -4 -3 -10 7 -11 -28 -94
-44 -104 -17 -11 -13 26 5 52 12 18 13 22 1 22 -7 0 -25 -17 -38 -37 -26 -39
-49 -54 -49 -30 0 8 10 29 23 48 17 24 31 34 49 34 15 -1 24 3 22 7 -7 11 -42
10 -65 -2 -10 -6 -26 -25 -35 -43 -9 -18 -26 -43 -37 -57 -15 -18 -16 -20 -3
-8 15 13 23 14 37 5 14 -9 22 -7 38 7 19 17 21 17 21 3 0 -10 5 -17 12 -17 6
0 20 7 30 17 17 15 18 15 18 0 0 -36 52 -13 74 33 4 8 -2 3 -14 -12 -12 -16
-27 -28 -34 -28 -19 0 -8 50 18 80 14 17 15 20 3 11 -15 -12 -17 -12 -11 3 3
9 18 17 33 17 23 2 23 2 4 6 -22 4 -22 6 -7 34 8 16 19 27 24 24 6 -4 10 -1
10 4 0 25 -37 8 -54 -24z"/>
<path d="M1706 363 c-6 -14 -5 -15 5 -6 7 7 10 15 7 18 -3 3 -9 -2 -12 -12z"/>
<path d="M655 339 c-5 -13 -1 -25 10 -33 14 -10 15 -14 1 -40 -8 -16 -12 -35
-9 -42 6 -16 29 -19 38 -4 4 6 13 5 25 -3 16 -10 23 -8 37 8 17 18 17 18 0 6
-24 -19 -32 -7 -17 28 16 39 45 65 65 58 8 -4 15 -2 15 3 0 6 -11 10 -25 10
-29 0 -61 -29 -87 -79 -26 -47 -42 -29 -18 19 22 43 24 51 13 49 -23 -4 -31 3
-26 21 7 27 -14 26 -22 -1z"/>
<path d="M875 322 c-6 -4 -19 -24 -30 -45 -25 -48 -45 -67 -45 -43 0 10 5 26
11 38 16 29 1 37 -20 9 -26 -34 -16 -70 19 -69 24 1 32 9 55 55 26 54 29 69
10 55z"/>
<path d="M993 315 c-31 -21 -52 -69 -41 -89 13 -23 31 -20 59 12 l24 27 -26
-22 c-31 -28 -39 -29 -39 -4 0 30 50 83 72 78 10 -3 16 -1 12 4 -8 14 -37 11
-61 -6z"/>
<path d="M1124 312 c-10 -9 -26 -30 -34 -46 -20 -39 -35 -43 -35 -9 0 16 -4
29 -10 30 -10 3 -12 -5 -14 -55 -1 -17 -12 -28 -47 -43 -25 -12 -43 -23 -41
-26 3 -2 19 3 37 12 44 23 47 14 10 -29 -21 -23 -42 -36 -59 -37 -18 -1 -20
-3 -8 -6 32 -8 73 17 101 62 16 24 36 51 46 60 16 14 18 14 23 0 4 -8 14 -15
24 -14 11 0 13 3 6 6 -15 6 -18 43 -3 43 5 0 7 6 4 13 -5 15 33 54 43 44 3 -4
-2 -17 -13 -29 l-18 -23 23 21 c23 22 22 44 -3 44 -7 0 -22 -8 -32 -18z"/>
<path d="M913 310 c-13 -5 -23 -12 -23 -15 0 -4 5 -3 10 0 6 3 10 -1 10 -9 0
-8 -4 -18 -10 -21 -5 -3 -10 -17 -10 -31 0 -17 5 -24 19 -24 11 0 23 4 26 10
3 6 -1 7 -9 4 -21 -8 -20 9 4 56 21 42 20 45 -17 30z"/>
<path d="M636 283 c-6 -14 -5 -15 5 -6 7 7 10 15 7 18 -3 3 -9 -2 -12 -12z"/>
<path d="M1157 237 l-17 -32 20 24 c17 20 26 41 18 41 -2 0 -11 -15 -21 -33z"/>
<path d="M616 243 c-6 -14 -5 -15 5 -6 7 7 10 15 7 18 -3 3 -9 -2 -12 -12z"/>
<path d="M910 140 c-6 -11 -8 -20 -6 -20 3 0 10 9 16 20 6 11 8 20 6 20 -3 0
-10 -9 -16 -20z"/>
</g>
</svg>
